<?xml version="1.0" encoding="utf-8"?>
<!-- Generator: Adobe Illustrator 16.0.1, SVG Export Plug-In . SVG Version: 6.00 Build 0)  -->
<!DOCTYPE svg PUBLIC "-//W3C//DTD SVG 1.1//EN" "http://www.w3.org/Graphics/SVG/1.1/DTD/svg11.dtd">
<svg version="1.1" id="Layer_1" xmlns="http://www.w3.org/2000/svg" xmlns:xlink="http://www.w3.org/1999/xlink" x="0px" y="0px"
	 width="128px" height="24px" viewBox="0 0 128 24" enable-background="new 0 0 128 24" xml:space="preserve">
<g>
	<path d="M52.991,6.197c-0.962-0.535-2.384-0.787-4.396-0.787c-2.71,0-5.231,0.563-6.178,0.916
		c-0.212,0.071-0.441,0.256-0.444,0.578v0.064l0.255,1.357l0.006,0.027c0.085,0.268,0.321,0.395,0.53,0.395
		c0.073-0.002,0.111-0.017,0.155-0.029l0.461-0.107c1.181-0.295,2.979-0.742,4.971-0.742c1.225,0,2.04,0.104,2.561,0.332
		c0.896,0.342,0.904,0.912,0.918,1.863v1.417c-0.108-0.005-0.288-0.005-0.539-0.005c-0.99,0-2.918,0.051-4.81,0.346
		c-2.871,0.443-5.278,1.139-5.26,5.118c0.001,5.05,4.699,5.06,6.938,5.065c1.535,0,2.943-0.227,3.87-0.418
		c2.099-0.492,2.64-1.158,2.619-3.248V9.943C54.648,8.658,54.651,7.074,52.991,6.197 M51.847,19.168
		c-1.139,0.371-2.349,0.553-3.656,0.553v0.111l-0.001-0.111c-2.06-0.02-4.081-0.256-4.084-2.896
		c0.012-2.102,1.119-2.348,2.552-2.676l0.096-0.02c1.262-0.262,4.433-0.313,5.093-0.322V19.168z M78.066,9.943v8.396
		c0.018,2.09-0.517,2.756-2.616,3.248c-0.932,0.191-2.337,0.418-3.873,0.418C69.338,22,64.638,21.99,64.637,16.94
		c-0.016-3.979,2.396-4.675,5.258-5.118c1.898-0.295,3.823-0.346,4.813-0.346c0.25,0,0.43,0,0.542,0.005v-1.417
		c-0.012-0.951-0.02-1.521-0.921-1.863c-0.516-0.229-1.335-0.332-2.561-0.332c-1.984,0-3.79,0.447-4.967,0.742l-0.465,0.107
		c-0.045,0.013-0.083,0.027-0.15,0.029c-0.208,0-0.445-0.127-0.533-0.395l-0.005-0.027l-0.252-1.357V6.904
		c0.002-0.322,0.226-0.507,0.438-0.578c0.948-0.354,3.467-0.916,6.178-0.916c2.017,0,3.438,0.252,4.396,0.787
		C78.069,7.074,78.067,8.658,78.066,9.943 M75.27,13.807c-0.662,0.01-3.833,0.061-5.095,0.322l-0.103,0.02
		c-1.43,0.328-2.539,0.574-2.547,2.676c0.002,2.641,2.025,2.877,4.082,2.896l0.002,0.111v-0.111c1.309,0,2.516-0.182,3.66-0.553
		V13.807z M120.482,5.41c-6.53,0.008-7.083,4.289-7.091,8.307c0.008,4.004,0.561,8.279,7.091,8.289
		c6.521-0.01,7.078-4.273,7.092-8.289C127.564,9.516,127.008,5.418,120.482,5.41 M120.482,19.658
		c-3.968-0.021-4.173-2.045-4.193-5.939c0.021-3.904,0.226-5.951,4.193-5.965c3.967,0.014,4.167,2.061,4.189,5.961
		C124.649,17.613,124.449,19.637,120.482,19.658 M108.772,21.418l-0.156,0.043c-0.939,0.227-2.183,0.545-4.371,0.545h-0.005
		c-6.044-0.01-7.207-3.059-7.214-8.318c0.007-6.025,1.915-8.27,7.032-8.277c1.832,0,3.084,0.234,3.968,0.447l-0.006-4.855
		c-0.005-0.213,0.071-0.496,0.603-0.596L110.201,0h0.113c0.355,0.008,0.482,0.342,0.482,0.615v18.258
		C110.815,20.02,110.699,21.016,108.772,21.418 M108.022,8.193c-0.549-0.135-2.047-0.465-3.731-0.465
		c-3.062,0.025-4.372,0.865-4.417,5.988c0.051,5.64,1.723,5.941,4.456,5.971l0.002,0.115v-0.115c1.707,0,3.161-0.352,3.688-0.502
		L108.022,8.193z M93.614,21.627h-1.433c-0.392,0-0.675-0.297-0.678-0.678V10.115c-0.036-1.826-0.577-2.338-2.55-2.361
		c-2.23,0-4.506,0.557-5.224,0.76v12.436c-0.001,0.389-0.294,0.678-0.647,0.678h-1.462c-0.393,0-0.687-0.297-0.688-0.678V8.807
		c-0.029-1.127,0.088-1.902,1.682-2.42c1.546-0.529,4.473-0.977,6.407-0.977c3.665,0.004,5.266,1.328,5.27,4.451v11.088
		C94.291,21.33,93.983,21.627,93.614,21.627 M61.124,21.912L61.124,21.912c0.819-0.014,1.419-0.178,1.669-0.441
		c0.088-0.098,0.117-0.207,0.109-0.314c-0.005-0.091-0.005-0.091-0.225-1.148l-0.005-0.021c-0.039-0.279-0.236-0.408-0.412-0.408
		h-0.018c0,0-0.205-0.006-0.412-0.006h-0.004c-0.599-0.014-1.067-0.105-1.073-0.966V0.615c0-0.293-0.193-0.607-0.56-0.615
		l-0.075,0.002l-1.628,0.41c-0.254,0.028-0.546,0.221-0.529,0.59v17.666c0.001,2.09,1.123,3.24,3.16,3.244H61.124z M38.427,21.627
		H26.914c-0.375,0-0.68-0.297-0.682-0.678v-1.398c-0.007-0.357,0.122-0.504,0.335-0.77l9.142-10.645h-8.962
		c-0.381-0.002-0.684-0.295-0.684-0.678v-0.99c0-0.391,0.303-0.68,0.684-0.68H38.38c0.378,0,0.667,0.289,0.669,0.68v1.43
		c0.003,0.262-0.087,0.48-0.293,0.708l-9.189,10.671h8.86c0.395,0.002,0.662,0.293,0.662,0.682v0.99
		C39.089,21.33,38.822,21.627,38.427,21.627"/>
</g>
<linearGradient id="SVGID_1_" gradientUnits="userSpaceOnUse" x1="0.2642" y1="17.019" x2="19.4341" y2="17.019">
	<stop  offset="0" style="stop-color:#F68D45"/>
	<stop  offset="0.6026" style="stop-color:#F6873A"/>
	<stop  offset="1" style="stop-color:#F58131"/>
</linearGradient>
<path fill="url(#SVGID_1_)" d="M0.264,14.359c0.11,4.478,1.093,8.953,3.064,8.953c7.521,0,16.105-7.103,16.105-9.646
	c0-0.635-0.757-1.976-1.624-2.94C11.927,14.25,5.953,15.702,0.264,14.359"/>
<linearGradient id="SVGID_2_" gradientUnits="userSpaceOnUse" x1="5.2222" y1="3.0977" x2="9.8513" y2="14.5553">
	<stop  offset="0" style="stop-color:#FCC9A0"/>
	<stop  offset="0.1738" style="stop-color:#FCC295"/>
	<stop  offset="0.4948" style="stop-color:#FAAE79"/>
	<stop  offset="0.9248" style="stop-color:#F7914D"/>
	<stop  offset="1" style="stop-color:#F68C44"/>
</linearGradient>
<path fill="url(#SVGID_2_)" d="M17.917,10.839l0.005-0.005C17.921,10.834,17.918,10.837,17.917,10.839 M0.271,14.538
	c5.657,1.332,11.703-0.162,17.543-3.646c0.034-0.016,0.071-0.037,0.103-0.054c-0.07-0.075-0.135-0.138-0.183-0.21
	c-2.696-2.996-8.249-6.62-14.554-6.62C1.186,4.009,0.17,9.443,0.271,14.538"/>
</svg>
